<?xml version="1.0" encoding="UTF-8"?><svg id="_レイヤー_1" xmlns="http://www.w3.org/2000/svg" viewBox="0 0 425.2 425.2"><defs><style>.cls-1{fill:none;stroke:#fdf8ea;stroke-miterlimit:10;stroke-width:2px;}.cls-2{fill:#f1ebd7;}</style></defs><polyline class="cls-1" points="19.04 202.33 19.04 41.58 54.18 41.58 54.18 29.89 19.04 29.89 19.04 18.2 31.01 18.2 31.01 52.49 42.98 52.49 42.98 18.2 141.2 18.2"/><polyline class="cls-1" points="406.15 202.33 406.15 41.58 371.02 41.58 371.02 29.89 406.15 29.89 406.15 18.2 394.19 18.2 394.19 52.49 382.22 52.49 382.22 18.2 283.99 18.2"/><polyline class="cls-1" points="19.04 222.86 19.04 383.61 54.18 383.61 54.18 395.31 19.04 395.31 19.04 407 31.01 407 31.01 372.71 42.98 372.71 42.98 407 141.2 407"/><polyline class="cls-1" points="406.15 222.86 406.15 383.61 371.02 383.61 371.02 395.31 406.15 395.31 406.15 407 394.19 407 394.19 372.71 382.22 372.71 382.22 407 283.99 407"/><g id="_乘濵楼"><path class="cls-2" d="M57.68,197.53c-2.14.67-3.66.75-4.55.25s-1.33-1.37-1.33-2.62c0-2,.22-3.24.67-3.74.44-.5,1.4-.66,2.88-.5.74.08,2.22.12,4.43.12s4.73-.06,7.54-.19c2.81-.12,5.73-.29,8.76-.5,3.03-.21,5.73-.48,8.09-.81-.07-1.16-.11-2.39-.11-3.68s-.04-2.64-.11-4.05c-1.92.42-3.83.79-5.71,1.12-1.88.33-3.68.62-5.38.87-2.66.42-4.66.62-5.99.62s-2.29-.21-2.88-.62c-.81-.42-1.13-.89-.94-1.43.18-.54.87-.81,2.05-.81.29,0,.72-.17,1.28-.5.55-.33,1.75-.62,3.6-.87,2.96-.42,5.88-.95,8.76-1.62,2.88-.66,5.47-1.33,7.76-1.99,6.36-1.83,10.16-3.2,11.42-4.11.89-.66,1.77-.98,2.66-.94.89.04,1.96.6,3.22,1.68,3.7,3.16,3.22,4.99-1.44,5.49-1.4.17-3.14.44-5.21.81-2.07.37-4.29.77-6.65,1.18-.07,1.41-.15,2.83-.22,4.24-.07,1.41-.15,2.79-.22,4.11,2.29-.08,4.82-.17,7.59-.25,2.77-.08,5.51-.14,8.2-.19,2.7-.04,5.17-.06,7.43-.06s4.01.04,5.27.12c2.22.17,3.56.48,4.05.93.48.46.2,1.27-.83,2.43-1.04,1.16-2.09,1.85-3.16,2.06-1.07.21-2.75.11-5.04-.31-1.85-.17-4.93-.31-9.26-.44-4.33-.12-9.15-.02-14.47.31-.22,4.82-.37,9.27-.44,13.34-.07,4.07-.15,8.15-.22,12.22,4.36,3.16,8.26,5.88,11.7,8.17,3.44,2.29,6.74,4.26,9.92,5.92,3.18,1.66,6.39,3.12,9.64,4.36,3.25,1.25,6.84,2.41,10.75,3.49,2.73.92,3.29,1.83,1.66,2.74-1.77,1.08-3.21,1.91-4.32,2.49-1.11.58-2.22,1.08-3.33,1.5-1.48.5-3.09.48-4.82-.06-1.74-.54-3.34-1.47-4.82-2.8-3.03-2.74-5.67-5.11-7.93-7.11-2.26-1.99-4.36-3.78-6.32-5.36-1.96-1.58-3.9-3.07-5.82-4.49-1.92-1.41-4.03-2.91-6.32-4.49,0,3.74.04,7.5.11,11.28.07,3.78.18,7.92.33,12.41.07,2.91-.13,5.17-.61,6.8-.48,1.62-1.24,2.43-2.27,2.43-1.11,0-1.92-.68-2.44-2.06-.52-1.37-.74-3.55-.67-6.55.15-5.32.28-10.02.39-14.09.11-4.07.2-7.85.28-11.35-2.14,2.33-4.25,4.51-6.32,6.55-2.07,2.04-4.27,4.01-6.6,5.92-2.33,1.91-4.82,3.85-7.48,5.8-2.66,1.95-5.62,4.01-8.87,6.17-1.48,1-2.75,1.7-3.83,2.12-1.07.42-2,.6-2.77.56-.78-.04-1.42-.27-1.94-.69-.52-.42-1-1-1.44-1.75-.67-1.08-.72-2.01-.17-2.8.55-.79,2.05-1.6,4.49-2.43,6.72-2.24,13.01-5.53,18.85-9.85,5.84-4.32,11.2-9.23,16.08-14.71.07-3.99.11-7.79.11-11.41s-.04-7.54-.11-11.78c-2.51.17-5.08.36-7.71.56-2.62.21-5.14.46-7.54.75-2.4.29-4.6.6-6.6.93-2,.33-3.59.71-4.77,1.12ZM69.77,202.02c-.22-2.41-.17-3.86.17-4.36.33-.5,1.16-.66,2.49-.5,1.55.17,2.55.67,2.99,1.5.44.83.48,2.08.11,3.74-.44,1.33-.74,2.7-.89,4.11-.15,1.41-.26,3.45-.33,6.11v3.99c2.36-.42,3.36-.12,2.99.87-.15.5-.48.98-1,1.43-.52.46-1.4.94-2.66,1.43-3.55,1.41-6.41,2.66-8.59,3.74-2.18,1.08-4.12,2.24-5.82,3.49-2.66,1.66-4.77,1.41-6.32-.75-.89-1.33-1.13-2.37-.72-3.12.41-.75,1.98-1.5,4.71-2.24,2.22-.58,4.29-1.12,6.21-1.62,1.92-.5,3.51-.91,4.77-1.25.67-.08,1.2-.19,1.61-.31.41-.12.68-.31.83-.56.15-.25.22-.64.22-1.19s-.04-1.27-.11-2.18c-.15-.58-.26-1.83-.33-3.74-1.7.17-3.47.37-5.32.62-1.85.25-3.29.5-4.32.75-1.92.5-3.55.5-4.88,0-1.33-.5-1.96-1.37-1.88-2.62,0-.5.2-.98.61-1.43.41-.46.94-.83,1.61-1.12.67-.29,1.39-.52,2.16-.69.78-.17,1.53-.25,2.27-.25,1.33.17,2.42.31,3.27.44.85.12,1.61.21,2.27.25.66.04,1.29.08,1.88.12.59.04,1.29.06,2.11.06,0-.91-.02-1.76-.06-2.56-.04-.79-.06-1.51-.06-2.18ZM103.69,198.28c-.67-.5-1.39-.75-2.16-.75s-1.46.29-2.05.87c-.37.42-.63.92-.78,1.5-.15.58-.19,1.08-.11,1.5.07.67.15,1.48.22,2.43.07.96.13,1.98.17,3.05.04,1.08.05,2.12.05,3.12v2.37c0,2.16.28,3.82.83,4.99.55,1.16,1.31,1.95,2.27,2.37,2.29,1,4.88,1.66,7.76,1.99,2.88.33,5.51.37,7.87.12,2.07-.25,3.53-.62,4.38-1.12.85-.5,1.5-1.37,1.94-2.62.29-.83.22-1.35-.22-1.56-.44-.21-1.41-.14-2.88.19-2.66.5-5.19.77-7.59.81-2.4.04-4.82-.27-7.26-.93-.81-.17-1.46-.98-1.94-2.43-.48-1.45-.65-3.76-.5-6.92,1.4-.17,2.88-.25,4.43-.25s2.73.04,3.55.12c1.77.33,3.03.37,3.77.12.74-.25,1.66-.83,2.77-1.75,2.07-1.83,1.59-2.82-1.44-2.99-3.03-.17-7.28-.04-12.75.37.15-1.75.17-2.91.06-3.49-.11-.58-.24-.95-.39-1.12Z"/><path class="cls-2" d="M185.46,208.87c.74.67,1.07,1.37,1,2.12-.07.75-.59,1.08-1.55,1-.59,0-1.4-.04-2.44-.12-1.04-.08-2.13-.19-3.27-.31-1.15-.12-2.26-.25-3.33-.37-1.07-.12-1.87-.19-2.38-.19-1.26-.08-2.07-.64-2.44-1.68-.37-1.04,0-2.26,1.11-3.68.96-1.25,1.88-1.99,2.77-2.24s1.77-.17,2.66.25c.52.25,1.16.6,1.94,1.06.78.46,1.55.96,2.33,1.5.78.54,1.48,1.06,2.11,1.56.63.5,1.13.87,1.5,1.12ZM188.67,229.82c-.3.75-.79,1.85-1.5,3.3-.7,1.46-1.52,3.06-2.44,4.8-.92,1.75-1.88,3.51-2.88,5.3-1,1.79-1.94,3.43-2.83,4.93-.44.75-1.09,1.27-1.94,1.56-.85.29-1.68.35-2.49.19-.81-.17-1.52-.6-2.11-1.31-.59-.71-.85-1.68-.78-2.93,0-.66.04-1.25.11-1.75.07-.5.28-1,.61-1.5.33-.5.79-1.04,1.39-1.62.59-.58,1.4-1.33,2.44-2.24.66-.66,1.53-1.51,2.6-2.56,1.07-1.04,2.14-2.1,3.22-3.18,1.07-1.08,2.07-2.08,2.99-2.99.92-.91,1.57-1.58,1.94-1.99.74-.75,1.33-.89,1.77-.44.44.46.41,1.27-.11,2.43ZM189.23,183.31c.59,1,.68,1.75.28,2.24-.41.5-1.27.58-2.61.25-.66-.17-1.44-.37-2.33-.62l-2.66-.75c-.89-.25-1.74-.5-2.55-.75-.81-.25-1.48-.46-2-.62-.74-.25-1.16-.94-1.27-2.06s.24-2.14,1.05-3.05c1.03-1.16,2.23-1.83,3.6-1.99,1.37-.17,2.64.33,3.83,1.5.96.92,1.86,1.91,2.72,2.99.85,1.08,1.5,2.04,1.94,2.87ZM244,195.78c-.74,1.17-1.26,2.39-1.55,3.68-.3,1.29-.52,2.6-.66,3.93-.15,1.25-.68,1.98-1.61,2.18-.92.21-2.49.31-4.71.31h-9.81c-2.62,0-4.97.02-7.04.06-2.07.04-4.03.12-5.88.25-1.85.12-3.92.31-6.21.56.07,5.49-.06,10.12-.39,13.9-.33,3.78-.76,6.63-1.27,8.54-1.26,4.49-2.85,8.15-4.77,10.97-1.92,2.83-4.25,5.44-6.99,7.85-1.63,1.41-3.18,2.02-4.66,1.81-1.48-.21-2.4-.89-2.77-2.06-.37-.91-.31-1.75.17-2.49.48-.75,1.61-1.7,3.38-2.87,3.55-2.41,6.21-4.8,7.98-7.17s3.1-5.3,3.99-8.79c.37-1.5.65-3.47.83-5.92.18-2.45.3-5.01.33-7.67.04-2.66-.02-5.24-.17-7.73-.15-2.49-.37-4.53-.67-6.11-.52-3.07-.28-5.24.72-6.48,1-1.25,2.79-1.95,5.38-2.12,2.29-.08,4.93-.17,7.93-.25,2.99-.08,6-.14,9.04-.19,3.03-.04,5.89-.04,8.59,0,2.7.04,4.93.1,6.71.19,2.29.17,3.75.83,4.38,1.99.63,1.16.54,2.37-.28,3.62ZM226.7,178.95c0,.17.02.29.06.37.04.08.06.21.06.37h5.54c2,0,3.9.02,5.71.06,1.81.04,3.44.06,4.88.06h3.05c1.85,0,3.38.35,4.6,1.06,1.22.71,1.9,1.98,2.05,3.8.22,2.41.31,4.28.28,5.61-.04,1.33-.17,2.66-.39,3.99-.07.5-.3.87-.66,1.12-.37.25-.78.37-1.22.37s-.85-.1-1.22-.31c-.37-.21-.63-.48-.78-.81-.22-.5-.39-1.12-.5-1.87-.11-.75-.28-2.24-.5-4.49-.15-1.75-.43-2.87-.83-3.37-.41-.5-1.2-.79-2.38-.87-7.98-.33-15.37-.46-22.17-.37-6.8.08-13.45.33-19.96.75-1.63.17-2.73.54-3.33,1.12-.59.58-.92,1.54-1,2.87-.07,1.66-.15,2.87-.22,3.62-.07.75-.22,1.7-.44,2.87-.22,1.25-.74,1.89-1.55,1.93-.81.04-1.55-.52-2.22-1.68-.3-.42-.48-1.27-.55-2.56-.07-1.29-.04-3.59.11-6.92,0-2.08.3-3.43.89-4.05.59-.62,2.03-1.02,4.32-1.19.96-.08,2.51-.17,4.66-.25,2.14-.08,4.4-.17,6.76-.25,2.36-.08,4.64-.14,6.82-.19,2.18-.04,3.86-.06,5.04-.06h1.99c-.89-.83-1.72-1.58-2.49-2.24-.78-.66-1.35-1.2-1.72-1.62-2.74-2.33-2.74-4.16,0-5.49,1.4-.66,2.57-.79,3.49-.37.92.42,1.53,1.08,1.83,1.99.3,1.08.63,2.29,1,3.62.37,1.33.7,2.45,1,3.37ZM245.44,216.72c0,.75-.04,1.91-.11,3.49-.07,1.58-.15,3.22-.22,4.93-.07,1.7-.15,3.3-.22,4.8-.07,1.5-.11,2.49-.11,2.99-.15,2.66-.37,4.78-.66,6.36-.22,1-.44,1.79-.66,2.37-.22.58-.57,1.04-1.05,1.37-.48.33-1.13.52-1.94.56-.81.04-1.88.02-3.21-.06-2.37-.08-4.9-.14-7.6-.19-2.7-.04-5.12-.02-7.26.06.15,1.25.06,2.24-.28,2.99-.33.75-.91,1.66-1.72,2.74-1.48,1.99-3.2,3.59-5.16,4.8-1.96,1.2-3.6,2.06-4.93,2.56-2.37.91-3.81.42-4.32-1.5-.96-2.33.33-3.95,3.88-4.86,3.1-.83,5.47-1.83,7.1-2.99,1.62-1.16,2.55-2.37,2.77-3.62-1.7.08-2.74.21-3.1.37-.81.42-1.57.6-2.27.56-.7-.04-1.33-.37-1.88-1s-1-1.62-1.33-2.99c-.33-1.37-.5-3.22-.5-5.55v-17.46c0-2,.33-3.3,1-3.93.67-.62,1.81-1.1,3.44-1.43,1.33-.25,3.1-.44,5.32-.56,2.22-.12,4.51-.21,6.87-.25,2.36-.04,4.66-.04,6.87,0,2.22.04,4.03.11,5.43.19,2.59.17,4.25.6,4.99,1.31.74.71,1.03,2.02.89,3.93ZM221.27,202.01c.07-1.33.11-2.7.11-4.11s.04-2.82.11-4.24c-1.92.08-3.77.17-5.54.25-1.77.08-3.48.21-5.1.37-1.77.17-2.99.5-3.66,1-.66.5-.96,1.46-.89,2.87,0,.83.02,1.62.06,2.37.04.75.06,1.5.06,2.24,3.33-.17,6.17-.31,8.54-.44,2.36-.12,4.47-.23,6.32-.31ZM241.23,224.58c-5.62-.17-10.48-.21-14.58-.12-4.1.08-8.08.33-11.92.75-.07.92-.11,1.79-.11,2.62v2.62c2-.08,3.99-.17,5.99-.25,1.99-.08,4.05-.14,6.15-.19,2.11-.04,4.32-.08,6.65-.12,2.33-.04,4.9-.06,7.71-.06,0-.83.02-1.68.06-2.56.04-.87.06-1.77.06-2.68ZM240.78,234.93c0-.25.02-.52.06-.81.04-.29.06-.6.06-.94-5.62-.42-10.72-.56-15.3-.44-4.58.12-8.24.52-10.98,1.19v1c0,1.99.26,3.24.78,3.74.52.5,1.74.75,3.66.75.59,0,1.72-.02,3.38-.06,1.66-.04,3.44-.08,5.32-.12,1.88-.04,3.68-.08,5.38-.12,1.7-.04,2.84-.06,3.44-.06,1.7,0,2.79-.25,3.27-.75.48-.5.79-1.62.94-3.37ZM241.23,218.72c0-1.33-.43-2.29-1.27-2.87-.85-.58-2.13-.95-3.82-1.12-.52-.08-1.57-.14-3.16-.19-1.59-.04-3.33-.02-5.21.06-1.88.08-3.73.17-5.54.25-1.81.08-3.16.21-4.05.37-1.4.25-2.31.69-2.72,1.31-.41.62-.61,1.68-.61,3.18v2.37c2.14-.17,4.21-.29,6.21-.37,2-.08,4.03-.14,6.1-.19,2.07-.04,4.25-.04,6.54,0,2.29.04,4.8.11,7.54.19v-2.99ZM225.48,196.78c-.07,1-.22,1.85-.44,2.56s-.63,1.56-1.22,2.56h8.76c1.92.08,3.25.06,3.99-.06.74-.12,1.29-.69,1.66-1.68.22-.83.37-1.37.44-1.62.07-.25.18-.83.33-1.75.22-1.16.22-1.97,0-2.43-.22-.46-1-.69-2.33-.69-1.77,0-3.57-.02-5.38-.06-1.81-.04-3.68-.02-5.6.06-.07.42-.13.85-.17,1.31-.04.46-.06,1.06-.06,1.81ZM248.65,253.88c-.74,1.16-1.57,1.87-2.49,2.12-.92.25-2.09-.08-3.49-1-1.7-1.25-3.05-2.39-4.05-3.43-1-1.04-2.13-2.31-3.38-3.8-.89-1-1.11-1.83-.66-2.49.44-.66,1.29-.58,2.55.25,1.77,1.16,3.56,2.1,5.38,2.8,1.81.71,3.16,1.14,4.05,1.31,2.73.25,3.44,1.66,2.11,4.24Z"/><path class="cls-2" d="M313.28,245.77c.22,4.24.06,7.06-.5,8.48-.55,1.41-1.28,2.12-2.16,2.12-.66,0-1.2-.12-1.61-.37-.41-.25-.72-.75-.94-1.5-.22-.75-.37-1.79-.44-3.12-.07-1.33-.11-3.07-.11-5.24.07-6.07.15-11.93.22-17.58.07-5.65.15-11.1.22-16.33-.81,1.83-1.57,3.45-2.27,4.86-.7,1.41-1.42,2.7-2.16,3.87-.74,1.16-1.53,2.27-2.38,3.3-.85,1.04-1.83,2.14-2.94,3.3-1.7,1.83-3.23,2.7-4.6,2.62-1.37-.08-2.2-.79-2.49-2.12-.3-1.33-.11-2.49.55-3.49s2.11-2.24,4.32-3.74c.67-.42,1.53-1.2,2.61-2.37,1.07-1.16,2.18-2.6,3.33-4.3,1.14-1.7,2.27-3.57,3.38-5.61,1.11-2.04,2-4.18,2.66-6.42,0-1.08.02-2.14.06-3.18.04-1.04.06-2.01.06-2.93-.74,0-1.35.02-1.83.06-.48.04-.83.06-1.05.06-.96.17-2.24.35-3.82.56-1.59.21-2.94.39-4.05.56-2.44.33-3.86-.08-4.27-1.25-.41-1.16-.13-2.37.83-3.62.59-.83,1.57-1.39,2.94-1.68,1.37-.29,3.23-.23,5.6.19.59.17,1.37.27,2.33.31.96.04,2.07.06,3.33.06,0-2.74-.02-5.22-.06-7.42-.04-2.2-.06-4.05-.06-5.55-.07-2.66.13-4.53.61-5.61.48-1.08,1.24-1.58,2.27-1.5,1.11.08,1.87.75,2.27,1.99.41,1.25.46,3.82.17,7.73-.07.67-.13,1.91-.17,3.74-.04,1.83-.06,4.07-.06,6.73h4.55c1.48,0,2.62-.08,3.44-.25,3.18-.25,4.73.42,4.66,1.99-.15,1.08-.54,1.81-1.16,2.18-.63.37-1.76.52-3.38.44h-8.09v31.11c0,4.95.02,9.19.06,12.72.04,3.53.09,5.59.17,6.17ZM323.59,214.22c1.26,1.91,1.18,3.62-.22,5.11-.81.75-1.63,1.06-2.44.94-.81-.12-1.63-.89-2.44-2.31-.74-1.33-1.44-2.53-2.11-3.62-.66-1.08-1.18-2.03-1.55-2.87-1.11-2.66-1.37-4.38-.78-5.17.59-.79,1.51-.64,2.77.44,1.03.92,2.11,1.98,3.21,3.18,1.11,1.21,2.29,2.64,3.55,4.3ZM371.59,256.74c-.74.83-1.61,1.14-2.6.94-1-.21-2.24-1.06-3.71-2.56-1.04-1.16-2.7-2.52-4.99-4.05-2.29-1.54-4.73-3.05-7.32-4.55-2.07,1.33-4.25,2.58-6.54,3.74-2.29,1.16-4.7,2.29-7.21,3.37-3.55,1.41-6.34,2.1-8.37,2.06-2.03-.04-3.53-.6-4.49-1.68-.89-1-1.18-2.04-.89-3.12.3-1.08,1.14-1.7,2.55-1.87,7.83-.75,14.63-2.45,20.4-5.11-1.85-1-3.51-1.85-4.99-2.56-1.48-.71-2.62-1.19-3.44-1.43-1.33-.42-2.31-1.2-2.94-2.37-.63-1.16-1.02-2.33-1.16-3.49-2.37.25-4.53.56-6.49.94-1.96.37-3.38.73-4.27,1.06-2.81.92-4.62,1.12-5.43.62-.81-.5-.74-1.79.22-3.87.81-1.83,1.81-2.89,2.99-3.18,1.18-.29,3.14-.31,5.88-.06.66.08,1.7.15,3.1.19,1.4.04,3.22.06,5.43.06.44-.42,1-.95,1.66-1.62.66-.66,1.35-1.35,2.05-2.06.7-.71,1.33-1.39,1.88-2.06.55-.66.94-1.2,1.16-1.62,1.4-2.58,2.62-3.57,3.66-2.99.59.42,1,1.21,1.22,2.37.22,1.16-.37,2.33-1.77,3.49-1.04.83-1.9,1.6-2.61,2.31-.7.71-1.31,1.39-1.83,2.06,3.1-.17,6.58-.29,10.42-.37.96,0,2.29.02,3.99.06,1.7.04,3.55.11,5.54.19-.07-1.58-1-3.03-2.77-4.36-2.22-1.58-3.55-2.66-3.99-3.24-.44-.58-.48-1.12-.11-1.62.22-.33.44-.58.67-.75.22-.17.57-.17,1.05,0,.48.17,1.13.5,1.94,1,.81.5,1.92,1.21,3.33,2.12,1.92,1.33,3.33,2.58,4.21,3.74.89,1.17,1.29,2.33,1.22,3.49,2.81.17,5.45.35,7.93.56,2.48.21,4.45.4,5.93.56,1.26.17,2.09.5,2.49,1,.41.5.24,1.33-.5,2.49-1.04,1.66-2.26,2.72-3.66,3.18-1.4.46-2.51.48-3.33.06-1.26-.58-2.92-1.22-4.99-1.93-2.07-.71-3.96-1.27-5.65-1.68-.44.75-1,1.5-1.66,2.24-2.22,2.49-4.81,4.86-7.76,7.11.89.42,1.81.83,2.77,1.25.96.42,1.85.79,2.66,1.12.81.33,1.5.62,2.05.87.55.25.94.42,1.16.5,3.33,2.08,5.36,3.93,6.1,5.55.74,1.62.66,2.93-.22,3.93ZM342.88,205.5c-.66,1.08-1.29,2.04-1.88,2.87-.59.83-1.2,1.66-1.83,2.49-.63.83-1.33,1.7-2.11,2.62-.78.92-1.68,1.95-2.72,3.12-1.4,1.66-2.49,2.52-3.27,2.56-.78.04-1.53-.39-2.27-1.31-1.77-2.24-1.33-4.36,1.33-6.36.81-.58,1.75-1.27,2.83-2.06,1.07-.79,2.11-1.56,3.1-2.31s1.9-1.41,2.72-1.99c.81-.58,1.37-1,1.66-1.25,1.7-1.41,2.77-1.85,3.22-1.31.44.54.18,1.52-.78,2.93ZM377.24,195.02c-.15,1.16-.65,1.98-1.5,2.43-.85.46-2.38.6-4.6.44-.59-.08-1.59-.17-2.99-.25-1.4-.08-2.94-.17-4.6-.25-1.66-.08-3.31-.14-4.93-.19-1.63-.04-2.99-.06-4.1-.06-.07,3.24-.11,6.13-.11,8.67s.04,4.01.11,4.43c.22,3.49.15,5.82-.22,6.98-.37,1.16-1.07,1.83-2.11,1.99-1.04.17-1.83-.39-2.38-1.68-.55-1.29-.68-3.59-.39-6.92.07-.66.11-2.26.11-4.8v-8.54c-1.4,0-2.86.02-4.38.06-1.52.04-2.92.08-4.21.12-1.29.04-2.42.08-3.38.12-.96.04-1.59.06-1.88.06-3.18.5-5.12.5-5.82,0-.7-.5-.65-1.41.17-2.74.81-1.33,1.7-2.16,2.66-2.49.96-.33,2.44-.33,4.43,0,.22,0,.74.02,1.55.06.81.04,1.79.1,2.94.19,1.14.08,2.42.19,3.83.31,1.4.12,2.77.23,4.1.31,0-3.49-.02-6.69-.06-9.6-.04-2.91-.09-4.94-.17-6.11-.15-2.41-.07-4.18.22-5.3.3-1.12,1.03-1.77,2.22-1.93,1.03-.17,1.83.19,2.38,1.06.55.87.79,2.52.72,4.93-.07,1.66-.13,4.03-.17,7.11-.04,3.08-.09,6.36-.17,9.85,1.11,0,2.38-.02,3.82-.06,1.44-.04,2.83-.08,4.16-.12,1.33-.04,2.49-.08,3.49-.12,1-.04,1.61-.06,1.83-.06,3.77-.33,6.32-.35,7.65-.06,1.33.29,1.92,1.02,1.77,2.18ZM343.32,184.92c1.18,2.41,1.53,4.05,1.05,4.93-.48.87-1.57.65-3.27-.69-1.26-.91-2.53-1.95-3.82-3.12-1.29-1.16-2.61-2.49-3.94-3.99-.81-.91-1.24-1.85-1.27-2.81-.04-.95.5-1.81,1.61-2.56,1.18-.83,2.23-1.14,3.16-.93.92.21,1.57.73,1.94,1.56.37.67,1.02,1.7,1.94,3.12.92,1.41,1.79,2.91,2.61,4.49ZM340.66,233.8c0,.67.22,1.16.66,1.5.15.17.65.5,1.5,1,.85.5,1.81,1.06,2.88,1.68,1.07.62,2.12,1.21,3.16,1.75,1.03.54,1.81.94,2.33,1.18.22.17.7.42,1.44.75,4.58-2.91,7.58-5.61,8.98-8.1-1.48,0-3.14.02-4.99.06-1.85.04-3.71.06-5.6.06s-3.73.02-5.54.06c-1.81.04-3.38.06-4.71.06h-.11ZM375.69,216.97c-.96,1.16-2.11,1.64-3.44,1.43-1.33-.21-2.44-.77-3.33-1.68-.59-.58-1.27-1.31-2.05-2.18-.78-.87-1.53-1.76-2.27-2.68-.74-.91-1.44-1.81-2.11-2.68-.66-.87-1.22-1.64-1.66-2.31-1.4-2.16-1.96-3.51-1.66-4.05.29-.54,1.11-.31,2.44.68.59.42,1.53,1.06,2.83,1.93,1.29.87,2.64,1.79,4.05,2.74,1.4.96,2.73,1.83,3.99,2.62,1.26.79,2.14,1.31,2.66,1.56,1.26.67,1.92,1.31,1.99,1.93.07.62-.41,1.52-1.44,2.68ZM370.93,176.94c.81,1.08,1.13,2.23.94,3.43-.19,1.21-.68,2.14-1.5,2.81-.96.75-2.09,1.6-3.38,2.56-1.29.96-2.57,1.89-3.82,2.81-1.63,1.16-2.79,1.58-3.49,1.25-.7-.33-.54-1.37.5-3.12,1.03-1.75,2.07-3.43,3.1-5.05,1.03-1.62,2-3.14,2.88-4.55.52-.83,1.24-1.35,2.16-1.56.92-.21,1.79.27,2.61,1.43Z"/></g><path class="cls-2" d="M171.74,23.49c-.17.41-.42.81-.74,1.2-.33.39-.73.71-1.21.96-.33.16-.64.19-.96.09-.31-.1-.58-.3-.82-.61-.16-.22-.31-.43-.46-.63-.15-.21-.3-.42-.46-.65-.16-.22-.33-.48-.53-.76-.19-.28-.42-.6-.68-.96-.43-.59-.79-1.08-1.08-1.46-.29-.38-.6-.76-.93-1.16-.3-.36-.48-.49-.56-.39-.07.1-.11.48-.11,1.15v1.34c0,.53,0,1.03.02,1.5,0,.2.04.35.12.45.08.1.23.16.47.18.49.04.91.07,1.25.09.34.03.58.06.72.09.16.05.27.13.33.22.06.09.08.26.06.51-.03.23-.06.39-.12.46-.05.07-.15.13-.29.16-.26.04-.59.07-.98.09-.39.03-.77.06-1.15.09-.14.02-.24.07-.3.15s-.08.24-.07.47c.03.61.02,1.1-.03,1.46-.05.36-.13.64-.24.84-.35.59-.77.79-1.25.59-.13-.05-.23-.11-.3-.18-.07-.06-.12-.17-.16-.31-.03-.14-.05-.35-.06-.62,0-.27,0-.64.03-1.11.03-.63,0-1.01-.08-1.15-.08-.13-.25-.2-.53-.2-.51,0-.9,0-1.18.03s-.51.05-.69.11c-.16.04-.28-.07-.38-.31-.1-.24-.07-.53.09-.88.13-.27.3-.47.52-.61.21-.13.39-.17.54-.09.17.09.61.11,1.33.05.17-.02.29-.06.37-.13.08-.07.12-.22.12-.46.01-.58.02-1.12.03-1.63,0-.51,0-.95,0-1.31,0-.47-.04-.71-.11-.74-.07-.03-.24.16-.52.55-.39.56-.83,1.12-1.33,1.7s-.98,1.12-1.46,1.63c-.48.51-.93.97-1.36,1.38-.42.4-.76.7-1.02.88-.31.22-.61.36-.91.42-.29.06-.57.06-.82,0s-.48-.18-.66-.36c-.19-.18-.33-.41-.42-.7-.07-.2-.08-.35-.03-.47.05-.12.18-.22.4-.31.7-.31,1.42-.7,2.15-1.19.73-.49,1.5-1.1,2.32-1.83.53-.47,1.09-1.02,1.67-1.65.58-.63,1.08-1.25,1.49-1.86.25-.36.34-.64.27-.85-.07-.21-.29-.31-.68-.31h-.57c-.2,0-.36,0-.51.03-.07,0-.19.02-.37.05-.18.04-.4.09-.65.16-.25.07-.53.15-.82.23-.29.08-.58.18-.85.28-.38.14-.65.2-.81.18-.16-.03-.26-.22-.28-.58-.01-.25.06-.54.22-.88.16-.33.35-.58.58-.74.25-.18.46-.29.62-.32.17-.04.4,0,.7.08.31.09.6.14.88.15.27,0,.64,0,1.11-.04.38-.02.67-.05.88-.11.21-.05.36-.14.46-.26.1-.12.15-.28.17-.49.01-.21.01-.48,0-.82-.03-.45.05-.79.21-1.03.17-.23.46-.31.88-.24.16.04.3.09.43.18s.22.16.27.23c.12.14.21.28.28.4.07.13.12.27.15.42.03.15.04.32.04.51s-.01.42-.04.69c-.04.31.08.46.35.46.42,0,.85,0,1.31.01.46,0,.88.02,1.29.04.4.02.76.03,1.06.04.31,0,.52.02.65.04.17.02.29.06.35.12s.08.22.04.47c-.03.18-.06.32-.1.42-.04.1-.1.17-.19.2-.08.04-.2.06-.33.07-.14,0-.32.01-.54.01h-3.43c-.33,0-.5.09-.53.27-.03.18.11.41.41.7.19.2.44.42.72.66.29.24.58.5.89.76s.61.51.93.76.6.46.86.66c.17.13.46.32.89.58.42.26.87.53,1.34.8s.9.51,1.3.73c.4.22.65.34.77.38.23.09.37.18.41.28.04.1.01.27-.08.5Z"/><path class="cls-2" d="M180.93,21.41c-.21.14-.36.23-.46.24-.1.02-.19-.02-.26-.11-.22-.22-.41-.4-.56-.55-.15-.15-.28-.28-.38-.39-.12-.14-.22-.19-.3-.15-.08.05-.13.17-.13.36v.78c.01,1.58.01,2.88,0,3.9-.01,1.02-.04,1.65-.08,1.9-.09.56-.26.97-.5,1.23-.24.26-.49.38-.75.36-.33-.02-.55-.4-.66-1.16-.03-.23-.04-.51-.03-.84s.04-.87.11-1.65c.03-.2.05-.62.06-1.25.01-.64.02-1.32.02-2.04,0-.22-.02-.33-.07-.35-.05-.02-.12.09-.22.32-.38.81-.77,1.49-1.19,2.05-.42.56-.79.96-1.11,1.21-.21.16-.42.26-.63.3-.21.04-.42.02-.6-.04-.19-.06-.35-.18-.49-.35-.14-.17-.24-.38-.3-.63-.1-.43-.15-.72-.15-.86,0-.14.08-.23.22-.27.06-.02.15-.05.25-.09.1-.04.21-.1.33-.16s.23-.13.33-.2c.1-.07.2-.14.27-.22.74-.74,1.38-1.44,1.91-2.12.53-.67.97-1.42,1.31-2.23.1-.25.13-.42.09-.5-.05-.08-.2-.12-.46-.12-.18,0-.44.05-.78.15-.34.1-.72.26-1.15.47-.23.13-.45.1-.65-.08s-.29-.53-.26-1.05c.01-.27.1-.52.25-.76.16-.23.34-.42.55-.57.21-.14.41-.24.6-.3.2-.05.33-.03.41.08.06.11.19.18.36.22.18.04.46.04.85,0,.1-.02.18-.06.21-.13s.06-.21.06-.4c0-.7-.02-1.26-.06-1.67-.04-.54.06-.96.29-1.25.23-.3.52-.36.86-.2.27.13.48.26.63.39s.26.3.32.5c.06.2.09.45.08.77-.01.31-.05.71-.12,1.17-.04.32-.01.54.08.65s.2.16.31.16c.18,0,.35,0,.52.01.16,0,.32.02.46.04.17.02.31.09.43.23.12.13.15.33.1.58-.04.2-.1.35-.18.46-.08.11-.22.18-.43.22-.14.04-.31.06-.51.08-.2.02-.38.05-.57.08-.14.02-.23.08-.26.19-.03.11.02.27.15.49.3.52.59.93.88,1.21.29.29.59.59.9.92.1.11.18.27.22.5.05.23,0,.38-.13.47ZM191.31,22.09c-.14.41-.33.78-.55,1.11-.22.32-.53.61-.92.86-.2.14-.43.17-.71.07-.28-.1-.58-.32-.91-.66-.55-.58-1.04-1.11-1.48-1.61-.44-.49-.85-.94-1.21-1.34-.13-.14-.24-.22-.32-.22s-.2.07-.34.22c-.3.34-.6.67-.89.97-.29.31-.6.58-.91.84-.29.22-.34.4-.16.54.16.13.32.17.49.13.77-.13,1.67-.1,2.69.08.06.02.16.02.27.01.12,0,.21-.04.29-.09.17-.13.36-.17.57-.13.21.04.4.15.58.35.18.22.3.45.36.7.06.25.06.58,0,1-.07.36-.11.76-.15,1.2-.03.44-.06.81-.09,1.12-.05.81-.22,1.35-.52,1.63-.29.28-.65.27-1.06-.04-.2-.14-.52-.24-.97-.3-.45-.05-1.08-.04-1.9.05-.08.02-.16.05-.25.09-.09.04-.19.09-.29.15-.1.07-.26.11-.47.11-.22,0-.4-.14-.55-.43-.14-.29-.22-.74-.23-1.35,0-.23,0-.49-.02-.77-.01-.28-.03-.55-.04-.82-.01-.27-.03-.52-.04-.76-.01-.23-.03-.42-.04-.57-.01-.22-.01-.39,0-.51.03-.16.02-.27-.02-.32-.04-.05-.13-.04-.27.03-.55.25-.97.37-1.28.35-.31-.02-.5-.13-.6-.32-.16-.4-.23-.65-.23-.76s.09-.2.27-.27c.72-.25,1.44-.65,2.18-1.19.73-.54,1.41-1.15,2.02-1.83.17-.2.25-.35.25-.46s-.08-.25-.23-.43c-.12-.13-.24-.26-.38-.39-.14-.13-.26-.27-.38-.42-.16-.14-.28-.22-.38-.23-.1,0-.21.05-.34.18-.1.11-.21.21-.31.31-.1.1-.21.19-.31.28-.22.2-.41.29-.58.27-.16-.02-.32-.13-.48-.32-.12-.2-.07-.39.16-.57.3-.25.67-.77,1.11-1.56.44-.79.87-1.83,1.29-3.1.25-.79.7-1.01,1.35-.65.29.14.47.37.55.69.08.31.06.64-.04.98-.07.2-.08.33-.06.4.03.07.11.13.25.19.18.05.4.09.64.09.25,0,.46,0,.64-.04.27-.07.51-.06.7.03.2.09.4.28.62.57.18.27.23.6.15.98s-.34.86-.77,1.42c-.06.09-.13.17-.19.23-.06.06-.12.14-.19.23-.2.25-.29.43-.28.54,0,.11.13.24.36.4.53.36,1,.66,1.4.9.4.24.76.44,1.08.61.32.16.62.29.9.39.28.1.56.19.85.28.22.07.35.16.38.26.03.1,0,.3-.09.61ZM186.43,25.73c.01-.5-.02-.82-.09-.94-.07-.13-.22-.2-.46-.22-.55-.04-1-.05-1.37-.05s-.7.02-1.01.05c-.21.02-.31.14-.31.38v.84c0,.29,0,.57.02.84.01.22.04.36.09.42.05.06.16.09.34.09.38-.02.73-.02,1.05-.01.33,0,.64.03.94.07s.5-.04.61-.22c.11-.18.17-.59.19-1.24ZM185.39,16.83c.21-.49.18-.78-.1-.89-.18-.07-.35-.11-.52-.12-.16,0-.43.02-.81.09-.17.04-.29.08-.36.12-.07.04-.14.11-.21.2-.1.14-.15.25-.14.31.01.06.08.14.19.23.18.13.35.24.5.35s.32.23.52.38c.21.14.37.18.48.09.11-.08.26-.34.44-.77Z"/><path class="cls-2" d="M210.62,24.3c-.38.65-.91,1.12-1.6,1.4-.31.14-.59.14-.84,0-.25-.14-.48-.4-.7-.78-.3-.5-.59-.97-.86-1.4s-.49-.77-.64-1.02c-.06-.11-.13-.21-.19-.3s-.11-.17-.17-.24c-.22-.31-.36-.39-.43-.26-.06.14-.09.46-.08.98.03.95.04,1.77.03,2.44,0,.67,0,1.35,0,2.01.01.41-.02.74-.09.98-.07.24-.24.45-.52.63-.21.14-.38.12-.52-.07-.14-.19-.21-.54-.21-1.07-.01-.61-.02-1.25-.03-1.93,0-.67-.02-1.39-.03-2.15,0-.36-.03-.53-.1-.51-.07.02-.18.17-.35.46-.12.2-.25.41-.4.63s-.31.44-.48.63c-.35.43-.67.69-.95.77-.28.08-.57.02-.87-.18-.23-.14-.35-.09-.35.16v.89c0,.31,0,.63-.02.97,0,.43-.05.77-.14,1-.09.23-.27.4-.55.51-.18.07-.36,0-.54-.23-.18-.22-.26-.58-.24-1.07.01-.76.02-1.47.03-2.13,0-.67,0-1.31,0-1.94,0-.29-.02-.43-.06-.43s-.12.11-.23.32c-.19.38-.4.7-.61.97-.21.27-.43.5-.63.7-.21.16-.44.22-.68.18-.25-.04-.49-.25-.74-.61-.09-.13-.16-.18-.19-.15-.04.03-.09.11-.16.26-.33.88-.73,1.47-1.23,1.75-.62.41-1.13.55-1.52.42-.39-.14-.68-.41-.86-.82-.1-.29-.13-.54-.08-.74.05-.21.18-.35.37-.42.17-.05.38-.2.63-.45.25-.24.51-.53.76-.86.25-.33.48-.69.69-1.07.21-.38.36-.72.45-1.03.3-1.1.43-2.12.4-3.06-.03-.94-.23-1.76-.6-2.44-.12-.23-.14-.52-.07-.86.07-.34.22-.61.44-.81.22-.23.46-.35.73-.34.27,0,.47.11.61.31.1.18.18.29.23.32.05.04.17.05.35.03.53-.05,1.1-.1,1.69-.14.59-.04,1.16-.07,1.71-.11.14,0,.23-.05.27-.15.04-.1.07-.37.1-.82.03-.5.11-.87.26-1.09.15-.22.42-.3.81-.23.4.05.69.17.86.34.17.17.27.51.29,1.01.03.38.06.61.12.69.05.08.19.11.41.09,1.04-.04,1.98-.05,2.83-.04.85,0,1.51.06,1.99.15.18.02.31.07.39.16.08.09.11.26.1.51,0,.2-.08.36-.24.49-.16.13-.43.17-.81.13-.9-.05-1.76-.08-2.59-.09-.83,0-1.68,0-2.54.03-.86.03-1.75.08-2.67.15-.92.07-1.92.16-2.99.27-.14.02-.23.04-.26.08-.03.04-.05.13-.05.27.01.63,0,1.33-.03,2.09-.03.76-.09,1.68-.19,2.74-.01.22-.03.42-.06.61-.03.19-.05.38-.08.58-.05.29-.06.46-.02.51.04.05.13.04.27-.03.16-.07.33-.17.54-.3s.41-.29.63-.49c.23-.2.45-.47.63-.81.19-.34.35-.72.48-1.13.17-.56.06-.78-.33-.67-.23.05-.42.1-.56.13-.14.04-.25.07-.34.11-.22.11-.41.08-.56-.09s-.22-.38-.2-.63c0-.34.1-.6.3-.77.2-.17.39-.26.58-.26.13,0,.28.01.44.04.16.03.31.05.46.07.1.02.18-.04.21-.18s.05-.42.04-.85c-.03-.52.06-.88.24-1.07s.48-.18.87.04c.27.14.44.35.5.61s.07.69.05,1.28c0,.09.04.15.13.19.08.04.26.04.52.03.23-.02.43,0,.58.08.16.07.21.22.18.43-.04.2-.12.36-.25.47-.13.12-.31.18-.53.18-.27.02-.46.04-.55.08-.09.04-.14.13-.14.27,0,.13.02.23.07.32.05.09.17.17.36.24.06.04.11.07.13.09s.06.09.13.2c.16.25.28.48.38.69.1.21.26.48.48.82.09.14.12.3.1.47-.03.17-.1.3-.21.39-.22.18-.46.09-.72-.27-.22-.27-.4-.4-.54-.39s-.21.1-.21.28c-.01.2-.02.4,0,.62,0,.22,0,.43,0,.65-.01.25.02.4.09.45s.22-.03.46-.23c.53-.43,1.03-.95,1.5-1.56.25-.31.49-.65.72-1.03.23-.38.42-.78.57-1.21.1-.36.13-.6.07-.72-.06-.12-.21-.16-.46-.12-.1.02-.2.04-.29.05-.09.02-.19.04-.29.05-.29.07-.5.04-.64-.09-.14-.13-.18-.38-.12-.74.03-.31.12-.53.27-.67.16-.14.34-.2.57-.16.08.02.16.03.23.03s.16,0,.23.03c.38.04.57-.06.57-.3-.01-.76.03-1.25.13-1.48.1-.23.3-.27.61-.11.29.14.46.3.52.46.06.16.09.4.09.7,0,.49.12.73.37.73.36-.02.69-.02.98-.01.29,0,.53.03.71.07.18,0,.33.04.45.13.12.09.18.25.19.49,0,.45-.23.7-.68.76-.12.02-.29.03-.52.03h-.97c-.19,0-.15.19.14.57.14.18.29.34.43.47.14.14.3.28.47.45,1.22,1.1,2.46,1.95,3.73,2.56.42.2.5.51.25.94Z"/><path class="cls-2" d="M229.97,23.25c-.22.43-.45.78-.68,1.05-.23.27-.44.44-.6.51s-.34.12-.52.13c-.17.02-.38,0-.61-.03s-.51-.11-.82-.22-.69-.26-1.13-.46c-.26-.11-.55-.21-.86-.3-.31-.09-.64-.16-1-.22-.17-.04-.28-.03-.34.01-.06.04-.1.13-.13.26-.08.59-.21,1.12-.41,1.56-.09.23-.04.41.16.54.49.27,1.02.54,1.57.82s1.14.57,1.77.88c.22.11.35.22.39.34.04.12.01.3-.08.55-.04.13-.13.21-.28.26-.15.04-.39.02-.73-.07-.48-.13-1.05-.31-1.72-.57-.66-.25-1.35-.55-2.05-.89-.1-.05-.21-.08-.3-.07-.1,0-.24.07-.44.18-.38.23-.81.44-1.29.61-.48.17-1.05.33-1.72.47-.3.07-.6.11-.91.12-.31,0-.59,0-.84-.05-.25-.04-.47-.11-.64-.2-.17-.09-.28-.2-.32-.32-.1-.31-.14-.49-.11-.57.03-.07.15-.1.36-.08.68.04,1.3,0,1.87-.12.57-.12,1.1-.28,1.58-.5.38-.18.57-.32.58-.43,0-.11-.2-.29-.61-.54-.26-.16-.45-.42-.58-.77-.12-.35-.17-.74-.13-1.17.01-.14,0-.23-.04-.27-.04-.04-.13-.04-.27-.03-.62.05-1.23.13-1.8.23-.58.1-1.11.21-1.59.32-.48.12-.9.24-1.25.36-.35.13-.61.24-.78.35-.3.2-.52.28-.65.24-.14-.04-.24-.22-.3-.54-.14-.67.27-1.39,1.23-2.19.26-.22.47-.34.64-.36.17-.03.33,0,.47.09.09.05.23.09.41.12.18.03.46.02.84-.01.62-.05,1.21-.09,1.75-.12s1.11-.05,1.71-.07c.18,0,.33-.03.45-.09.12-.06.29-.19.51-.39.08-.07.17-.16.27-.26.1-.1.21-.2.33-.31.14-.14.12-.27-.06-.38-.1-.05-.19-.13-.25-.22-.09-.13-.12-.26-.09-.4.03-.14.09-.21.19-.19.31.05.64.06.97.01.34-.04.67-.13,1-.26.2-.07.19-.16-.02-.27-.44-.23-.7-.49-.76-.78-.03-.14-.1-.28-.21-.4-.03-.04-.04-.09-.05-.16,0-.07,0-.19.03-.35.05-.25.13-.42.23-.51.1-.09.27-.13.51-.13.1,0,.17-.04.21-.11.04-.07.06-.24.06-.51,0-.23-.02-.38-.07-.43-.04-.05-.13-.08-.24-.08-.13,0-.26,0-.4.01-.14,0-.28.02-.44.04-.13,0-.22.04-.27.13-.05.09-.09.34-.12.76-.03.76-.11,1.46-.25,2.1-.14.65-.4,1.24-.78,1.78-.08.11-.18.22-.31.34-.13.12-.27.22-.41.3-.14.08-.28.14-.41.19-.13.04-.23.06-.31.04-.18-.04-.32-.09-.42-.18-.1-.08-.18-.24-.24-.47-.07-.22.01-.37.23-.46.16-.07.32-.18.49-.32.17-.14.33-.3.48-.46.15-.16.28-.33.39-.5.11-.17.19-.33.22-.47.1-.4.16-.86.17-1.4,0-.54-.04-1.07-.15-1.59-.08-.43-.06-.8.06-1.09.12-.3.29-.43.51-.39.16.04.28.06.38.08.1.02.18.05.24.11.18.14.3.22.35.22.16,0,.31,0,.47-.01s.32-.02.49-.04c.13-.02.21-.07.24-.15.03-.08.04-.3,0-.66-.03-.36.01-.67.12-.94.1-.27.25-.4.43-.4.29,0,.51.03.68.09.17.06.34.19.53.39.1.11.18.27.22.47.05.21.06.44.05.69-.01.2,0,.32.05.36s.13.08.24.09c.1.02.22.04.34.05.12.02.26.04.4.05.08.02.19,0,.32-.04.14-.04.25-.11.34-.2.1-.11.23-.18.37-.2.14-.03.29,0,.43.05.14.06.27.17.39.32.12.15.2.35.25.58.06.31.11.66.13,1.07s-.02.89-.11,1.44c-.03.18-.08.33-.17.45-.08.12-.22.2-.42.26-.14.04-.26,0-.35-.12-.09-.12-.15-.37-.18-.77-.01-.2-.02-.37-.02-.51s0-.29-.02-.43c-.01-.2-.09-.37-.23-.51-.14-.14-.32-.22-.53-.22h-1.05c-.08,0-.14.04-.19.11-.05.07-.07.23-.07.49,0,.2.04.32.11.38.07.05.22.06.46.03.21-.04.4-.02.57.04s.3.15.4.27c.1.12.15.27.17.45.01.18-.04.36-.16.54-.17.29-.41.59-.72.92-.19.2-.19.35,0,.46.12.07.23.14.33.2.1.06.21.13.33.2.12.07.25.16.4.26.15.1.33.22.56.36.36.25.57.43.62.54.04.11,0,.26-.11.46-.18.25-.58.21-1.19-.13-.4-.22-.76-.41-1.08-.58-.32-.17-.61-.33-.87-.47-.14-.09-.24-.14-.3-.14s-.12.02-.19.05c-.22.16-.4.26-.55.3-.12.04-.21.07-.26.11s-.12.1-.19.19c-.14.2-.27.36-.38.49-.11.13-.22.26-.32.4-.22.25-.16.38.18.38h1.3c.46,0,.97,0,1.51.03.56,0,1.07,0,1.53.01.46,0,.89.02,1.3.04.4.02.78.04,1.14.07.36.03.72.05,1.08.07.34.04.53.11.58.22s-.02.35-.21.73ZM218.35,18.04c-.26.14-.62.27-1.06.39-.45.12-.95.19-1.49.23h-.22c-.1,0-.21,0-.33-.01-.12,0-.25-.02-.37-.04-.12-.02-.23-.04-.32-.05-.34-.07-.58-.24-.72-.51-.14-.27-.18-.56-.12-.86.06-.34.21-.57.44-.69.23-.12.45-.13.67-.04.36.14.69.27.97.36s.57.18.84.24c.27.06.54.12.81.18.27.05.56.11.89.16.14.04.22.13.23.28s-.06.27-.21.36ZM218.38,19.52c-.13.18-.38.4-.74.67-.36.27-.87.57-1.5.89-.25.13-.48.22-.7.28-.22.06-.38.08-.49.04-.16-.05-.28-.17-.38-.34-.1-.17-.14-.35-.13-.55.01-.5.23-.8.64-.89.31-.05.6-.11.85-.16.25-.05.5-.11.73-.18.23-.06.47-.13.7-.22.23-.08.48-.18.74-.28.16-.07.28-.02.36.16.08.18.06.37-.09.57ZM218.35,15.58c.14.07.18.18.13.31-.06.13-.18.25-.36.34-.16.07-.39.12-.7.14-.31.02-.64,0-.99-.05-.34-.05-.67-.14-.98-.26-.31-.12-.54-.27-.69-.47-.08-.11-.15-.25-.21-.43-.06-.18-.08-.35-.08-.53,0-.17.05-.33.14-.49.08-.15.23-.26.44-.31.09-.02.18-.03.27-.03s.21.04.36.11c.15.07.35.19.6.35.25.16.59.39,1.02.67l.51.32c.17.11.34.22.53.32ZM221.76,23.92c.03-.11.02-.19-.02-.24-.04-.05-.15-.1-.33-.13-.13-.02-.25-.03-.37-.03h-.37c-.31,0-.49.12-.55.35-.1.38,0,.65.29.81.08.04.16.08.24.14.08.05.17.1.26.13.14.09.25.12.31.09.07-.03.14-.14.23-.34.14-.25.24-.51.29-.78ZM224.08,18.2c.08-.11.12-.2.13-.27,0-.07-.04-.12-.13-.15s-.24-.03-.45-.01c-.21.02-.5.07-.86.16-.1.04-.16.08-.18.13-.01.05.05.13.2.22.09.05.18.11.28.16.1.05.19.11.26.16.18.11.33.08.45-.08.07-.05.12-.11.16-.16.04-.05.08-.11.14-.16Z"/><path class="cls-2" d="M249.52,26c-.12.31-.29.62-.52.94s-.51.64-.85.94c-.2.18-.38.31-.55.39-.17.08-.35.11-.55.09-.2-.02-.42-.09-.68-.22-.26-.13-.58-.3-.96-.51-.12-.07-.3-.15-.55-.24-.25-.09-.52-.18-.81-.27-.29-.09-.59-.17-.89-.24-.3-.07-.55-.13-.74-.16-.7-.11-1.38-.17-2.05-.19-.66-.02-1.37,0-2.13.08-.6.05-1.12.11-1.56.18-.44.06-.88.14-1.32.24s-.92.23-1.44.39c-.53.16-1.18.37-1.96.62-.29.09-.53.01-.72-.23s-.26-.61-.2-1.09c.05-.36.17-.68.34-.96.18-.28.39-.52.65-.71.27-.22.53-.32.78-.32s.45.03.61.08c.36.14.69.23.97.24.29.02.61-.02.98-.11.16-.04.4-.07.73-.09.33-.03.72-.05,1.18-.07.09,0,.15-.01.18-.04.03-.03.04-.11.04-.26.01-.25.01-.59,0-1.01-.01-.42-.05-.76-.1-1.01-.03-.11-.06-.18-.1-.2s-.11-.04-.21-.04c-.08,0-.16.03-.23.08-.08.05-.18.1-.31.13-.05.02-.1.03-.15.04-.05,0-.1.02-.17.04-.19.05-.35.08-.46.07-.11,0-.2-.08-.27-.22s-.13-.36-.18-.67c-.04-.31-.09-.75-.15-1.31-.03-.32-.08-.66-.15-1.01-.07-.35-.15-.66-.24-.93-.05-.14-.07-.31-.05-.5.02-.19.07-.37.14-.55s.17-.33.29-.46c.12-.13.27-.21.44-.24.21-.02.4-.02.57,0,.12.04.22.07.32.09.1.03.2.04.3.04h.28c.08,0,.19,0,.3-.03.26-.02.58-.03.96-.03s.78,0,1.2.01c.42,0,.84.02,1.27.04.42.02.81.04,1.16.05.47.04.88.04,1.24,0,.36-.04.6-.1.71-.19.22-.18.46-.27.71-.27s.45.06.59.19c.25.22.42.5.53.86.1.36.12.67.06.94-.04.14-.08.33-.12.57-.04.23-.08.48-.13.74-.05.26-.08.52-.12.78s-.06.48-.07.66c-.03.27-.09.49-.2.66s-.22.29-.36.36-.28.11-.42.11-.27-.04-.37-.11c-.08-.05-.27-.1-.59-.14-.07,0-.12.01-.16.04-.04.03-.07.11-.1.26-.06.29-.12.63-.17,1.03-.05.4-.06.77-.03,1.13.01.25.11.39.29.4.05.02.1.02.15.01.05,0,.09,0,.15.01.43.05.84.09,1.23.12.39.03.8.05,1.24.07.44.02.9.03,1.41.03h1.73c.25,0,.4.05.45.15.05.1,0,.33-.14.69ZM246.65,14.61c0,.34-.07.56-.2.66-.13.1-.36.14-.7.12-1.05-.05-2.06-.08-3.01-.09-.96,0-1.73-.03-2.33-.07-.2,0-.46,0-.8.01-.34,0-.69.03-1.06.05-.37.03-.73.06-1.06.11-.34.04-.6.09-.8.12-.75.16-1.32.25-1.71.27-.38.02-.64-.02-.77-.11-.23-.16-.39-.3-.47-.42-.08-.12-.11-.25-.1-.39.03-.32.09-.57.19-.74s.27-.34.52-.5c.21-.14.37-.23.48-.24.11-.02.29.02.54.11.1.04.62.06,1.54.08.92.02,2.17,0,3.75-.03.4-.02.85-.03,1.34-.03h1.45c.48,0,.93,0,1.34.01.41,0,.74.02.99.04.34.04.57.13.7.27s.2.4.2.76ZM243.69,19.42c.05-.43.03-.72-.08-.86s-.35-.23-.74-.27c-.35-.02-.71-.04-1.07-.05s-.76-.02-1.2-.01c-.44,0-.93.03-1.47.07-.55.04-1.19.08-1.93.13-.1.02-.17.05-.19.08-.03.04-.03.14-.02.32.01.23.02.46.03.67,0,.22.02.45.03.7,0,.14.01.23.04.26.03.03.09.04.2.04,1.3-.04,2.41-.07,3.32-.09.91-.03,1.68-.05,2.3-.07.26,0,.45-.07.57-.2.12-.13.2-.37.23-.71ZM241.41,22.41c.01-.2,0-.32-.03-.36-.03-.04-.11-.06-.22-.04-.14.02-.29.03-.44.03h-.5c-.14,0-.28,0-.42.01-.14,0-.26.01-.38.01-.07,0-.12.02-.16.05s-.07.13-.1.27c-.01.13-.02.28-.02.46v.55c0,.19,0,.37.02.55.01.18.03.33.04.46.03.16.06.26.09.3s.12.05.26.05h.68c.22,0,.44,0,.66.03.1,0,.18-.02.22-.07.04-.04.08-.14.11-.28.05-.25.09-.58.12-1,.03-.41.04-.76.06-1.03Z"/><path class="cls-2" d="M268.88,17.18c-.11.31-.22.56-.36.76-.14.2-.34.4-.6.59-.13.11-.24.19-.34.24-.1.05-.21.08-.32.08s-.25-.02-.41-.07c-.16-.04-.35-.12-.59-.23-.21-.09-.4-.17-.58-.24-.17-.07-.35-.13-.54-.16-.12-.04-.19-.03-.22.01-.03.05-.05.17-.05.36v1c0,.61-.07,1.1-.21,1.47s-.34.62-.59.77c-.34.18-.36.27-.08.27.12,0,.21-.02.29-.05.34-.2.59-.32.74-.38.16-.05.29-.06.41-.03.26.05.45.12.56.2s.21.23.27.45c.14.41.23.77.26,1.07.03.3.02.59-.05.88-.03.16-.03.5-.02,1.02.01.52.07,1.2.18,2.02.04.27-.02.54-.18.82-.16.28-.44.48-.86.61-.25.07-.44.12-.58.14-.14.02-.25,0-.33-.05-.08-.05-.13-.15-.15-.28s-.03-.33-.03-.58v-3.91c-.01-.31-.05-.5-.12-.58-.06-.08-.2-.13-.41-.15-.34-.04-.64-.05-.9-.05s-.53,0-.8-.03c-.26,0-.29.07-.1.22.34.29.65.56.93.81s.46.42.56.51c.14.16.23.34.26.54.03.2.02.34-.05.43-.1.14-.25.21-.43.2-.18,0-.37-.1-.55-.28-.22-.22-.42-.4-.61-.57-.18-.16-.36-.31-.53-.46-.17-.14-.34-.29-.51-.43-.17-.14-.36-.31-.57-.49-.09-.09-.17-.12-.24-.08-.07.04-.19.15-.36.35-.16.2-.34.4-.56.61-.21.21-.43.4-.64.58-.21.18-.42.33-.6.46-.19.13-.34.21-.46.24-.43.14-.72.06-.88-.24-.09-.16-.13-.34-.11-.53s.1-.32.24-.39c.4-.18.77-.38,1.11-.59.34-.22.61-.43.82-.65.22-.23.18-.33-.14-.3-.13.02-.28.03-.45.04-.17,0-.33.02-.49.04-.22.04-.4.06-.55.07-.14,0-.28.03-.41.07-.09.04-.15.07-.18.11-.03.04-.03.15-.02.35.03.58.01,1.2-.04,1.88-.05.67-.13,1.3-.23,1.88-.05.29-.15.54-.28.74-.14.21-.29.37-.46.49s-.33.19-.5.22c-.16.03-.29,0-.38-.09-.35-.29-.55-.55-.6-.8-.05-.24,0-.48.18-.71.18-.23.34-.52.49-.85.14-.33.26-.69.34-1.08.08-.39.13-.8.14-1.23,0-.43-.03-.85-.11-1.27-.05-.25-.03-.52.06-.8.09-.28.22-.43.39-.45s.33,0,.49.05c.16.13.31.19.47.19.55-.04,1.03-.05,1.46-.05s.84,0,1.26-.03c.12,0,.19-.02.21-.07.03-.04.05-.17.08-.36.01-.09.02-.18,0-.26,0-.08,0-.17,0-.26-.01-.61.18-.92.56-.92.16,0,.31.08.46.24.15.16.28.42.38.78.03.07.04.14.04.22v.24c-.01.2.03.3.14.3h.35c.12,0,.23,0,.35.03.12.02.18,0,.18-.03,0-.04,0-.07-.05-.11-.3-.25-.49-.45-.58-.59-.09-.14-.14-.32-.16-.54-.03-.25.16-.28.57-.08.08.04.17.04.27.03.11-.02.21-.06.31-.13s.2-.16.27-.26c.08-.1.12-.22.14-.36.03-.2.04-.4.06-.59.01-.2.01-.45,0-.76,0-.18-.02-.29-.05-.32s-.1-.05-.21-.05h-.55c-.13,0-.27,0-.41.01-.14,0-.29.02-.45.04-.17.02-.25.06-.24.12,0,.06.09.19.26.36.14.14.26.26.35.35.09.09.21.19.35.3.16.11.24.22.25.32.01.11-.04.26-.18.46-.13.2-.34.29-.64.28-.3,0-.58-.14-.84-.39-.21-.2-.33-.38-.36-.54-.03-.16-.02-.4.05-.7.04-.16.04-.27,0-.34-.03-.06-.12-.08-.28-.04-.25.05-.44.12-.57.19-.33.2-.56.31-.7.34-.14.03-.28,0-.41-.09-.18-.13-.22-.39-.12-.78.05-.16.12-.29.19-.38.18-.22.37-.4.56-.54.19-.14.35-.26.48-.35.2-.11.46-.12.78-.03.13.04.25.07.37.09.12.03.26.05.43.07.17.02.38.03.63.03s.57,0,.96-.03c.1,0,.17-.02.2-.07.03-.04.04-.14.04-.28s0-.28,0-.42c0-.14.03-.26.07-.36.05-.14.07-.23.05-.24-.02-.02-.09-.03-.22-.03-1.34.02-2.65.07-3.92.15-1.27.08-2.45.18-3.51.31-.1.02-.17.05-.2.08-.03.04-.04.13-.04.27,0,.22.02.36.05.43.03.07.12.13.26.16.13.04.27.04.41,0,.34-.07.71-.18,1.11-.34.4-.15.73-.32.98-.5.3-.2.51-.3.63-.31.12,0,.23.04.32.15.16.2.2.4.14.62s-.25.48-.57.78c-.06.07-.12.15-.15.24s-.07.25-.09.47-.03.56-.02,1c0,.44.02,1.06.05,1.85.01.31-.03.53-.14.66-.11.14-.36.27-.76.42-.35.11-.58.11-.68,0-.1-.11-.14-.39-.12-.84.01-.23.02-.54.03-.9,0-.37.02-.76.03-1.17,0-.2-.02-.31-.06-.34s-.12-.01-.25.04c-.13.07-.26.12-.38.13-.12.02-.23.03-.32.03-.05,0-.13-.02-.23-.05-.14-.04-.23-.04-.25,0-.03.04-.05.16-.06.38-.01.29-.03.61-.05.97s-.04.75-.07,1.16c-.04.54-.12,1.07-.23,1.59-.12.52-.26,1-.44,1.43s-.36.81-.57,1.13c-.2.32-.41.56-.62.7-.6.41-1.11.56-1.52.43s-.74-.47-.98-1.03c-.18-.43-.25-.75-.2-.94.05-.2.17-.32.35-.38.2-.05.42-.19.68-.4s.52-.48.77-.8c.25-.31.49-.65.7-1.01.21-.36.37-.72.48-1.08.12-.4.21-.84.26-1.32s.09-.97.1-1.46c0-.49,0-.95-.05-1.39-.04-.44-.1-.82-.2-1.15-.07-.25-.08-.53-.03-.82.04-.3.16-.56.34-.8.14-.18.33-.26.57-.23.23.03.42.17.57.42.07.11.12.18.16.22.04.04.1.04.2,0,.51-.04,1.02-.06,1.54-.08.52-.02,1.03-.04,1.52-.08.1,0,.17-.01.21-.04.04-.03.06-.1.06-.23,0-.09,0-.18,0-.26,0-.08.02-.18.03-.31.03-.5.12-.84.27-1.01.16-.17.45-.21.88-.12.39.07.7.21.93.42.23.21.36.53.38.96.01.2.04.33.08.39.04.06.11.09.21.09.96-.04,1.85-.05,2.65-.05s1.48.02,2.03.05c.25.02.41.08.49.18.08.1.11.27.1.53-.01.18-.09.32-.22.42-.14.1-.41.15-.81.15h-1.13c-.1,0-.16.02-.16.05s.03.11.1.22c.1.16.18.31.21.46s.06.29.08.43c.01.07.03.12.05.15.02.03.08.05.19.07.05,0,.1,0,.16-.01.05,0,.11-.01.18-.01h1.71c.33,0,.63,0,.91-.01.27,0,.45-.01.53-.01.25-.04.39-.02.42.05.03.07,0,.23-.09.49ZM263.94,28.29c-.06.14-.18.22-.35.23-.17,0-.38-.09-.64-.28-.18-.14-.49-.38-.94-.72-.44-.33-.94-.7-1.48-1.09-.08-.05-.14-.07-.19-.05-.04.02-.12.07-.22.16-.33.34-.7.67-1.12.98-.42.31-.78.54-1.08.66-.44.2-.74.11-.9-.27-.12-.29-.17-.49-.15-.59s.14-.22.36-.35c.69-.36,1.23-.7,1.61-1.02.38-.32.72-.7,1.01-1.13.26-.38.45-.6.56-.67.12-.07.23-.06.35.03.09.05.17.12.23.2s.09.18.08.28c-.01.2,0,.32.02.38.03.05.08.13.18.22.59.47,1.07.85,1.45,1.16.38.31.65.51.79.62.27.2.44.39.5.57.06.18.04.41-.07.7Z"/><g id="chez_norihama"><path class="cls-2" d="M110.33,312.51c-1.48,1.76-2.89,3.08-4.18,3.94-1.55,1.03-2.44,1.25-2.92,1.25-.36,0-.65-.1-.88-.31-.22-.19-.32-.5-.32-.93,0-.71.11-1.42.31-2.09.21-.67.49-1.28.85-1.8.35-.51.74-.92,1.18-1.23.41-.29.83-.43,1.26-.43.3,0,.51.07.63.2.14.16.2.31.2.46,0,.19-.03.36-.09.52-.05.12-.04.26.02.38.06.12.16.21.29.25l.13.04c.15.05.31.02.43-.07.41-.32.71-.56.91-.76.28-.31.42-.73.42-1.26,0-.5-.2-1.66-2.04-1.66-.29,0-.62.08-1.03.24-1.18.49-2.29,1.26-3.3,2.3-1.01,1.04-1.8,2.24-2.35,3.57-.25.6-.37,1.19-.37,1.74,0,.88.36,2.36,2.8,2.36.33,0,.7-.04,1.08-.11.38-.07.8-.2,1.25-.38.56-.23,1.15-.54,1.77-.94.61-.39,1.2-.84,1.78-1.33.57-.48,1.13-1,1.67-1.54.56-.56,1.03-1.08,1.45-1.59.08-.08.26-.28.26-.55,0-.13-.09-.33-.18-.42-.05-.04-.45-.42-1.02.14Z"/><path class="cls-2" d="M128.77,298.23c1.18-1.62,2.29-2.95,3.3-3.98,1-1.01,1.94-1.81,2.81-2.37.85-.55,1.65-.93,2.37-1.12,1.56-.41,3.12-.37,4.01.02.47.2.83.44,1.08.71.24.26.4.52.48.77.11.36.13.56.13.64,0,.18.08.36.2.48.12.13.29.19.46.16.15-.02.36-.2.43-.33.07-.13.12-.31.17-.58.05-.25.07-.6.07-1.07,0-.71-.14-1.31-.43-1.78-.28-.46-.65-.83-1.1-1.09-.42-.24-.87-.42-1.33-.52-2.17-.5-4.25.13-6.31,1.59-1.58,1.12-3.17,2.59-4.7,4.35-1.53,1.76-3.03,3.73-4.48,5.86-1.45,2.13-2.85,4.22-4.2,6.27-1.15,1.78-2.31,3.61-3.42,5.43-1.11,1.82-2.27,3.8-3.47,5.9-.12.23-.18.46-.18.67,0,.4.25.72.68.85.27.08.5.12.69.12.52,0,.85-.52,1.05-.91.31-.57.67-1.22,1.09-1.95l1.19-2.07c.95-1.24,1.74-2.09,2.36-2.52.24-.17.44-.29.59-.38-.06.14-.14.31-.25.52-.31.58-.65,1.22-1.03,1.92-.39.71-.74,1.41-1.05,2.1-.34.75-.51,1.36-.51,1.87,0,.6.19,1.08.58,1.44.37.34.86.52,1.46.52.69,0,1.45-.2,2.26-.6.77-.38,1.56-.89,2.32-1.51.76-.61,1.51-1.3,2.23-2.04.73-.75,1.37-1.51,1.92-2.26.06-.08.09-.18.09-.28,0-.44-.29-.64-.56-.64-.13,0-.32.04-.55.27-1.48,1.92-2.8,3.29-3.94,4.07-1.36.94-2.09,1.14-2.47,1.14-.27,0-.46-.06-.59-.19-.13-.12-.19-.34-.19-.64,0-.22.06-.63.34-1.33.25-.62.55-1.25.88-1.88.34-.64.7-1.25,1.06-1.81.36-.57.65-1.01.86-1.32.33-.43.48-.75.48-1.03,0-.38-.26-.77-.86-.77-.41,0-.89.14-1.44.42-.49.25-1,.55-1.52.88-.21.14-.41.27-.61.41,1.29-2.41,2.51-4.56,3.62-6.41,1.4-2.34,2.72-4.35,3.92-5.98Z"/><path class="cls-2" d="M145.62,313.02c-.24-.09-.5-.04-.73.19-.35.45-.8.93-1.33,1.45-.53.51-1.11.99-1.73,1.42-.62.43-1.26.79-1.92,1.08-.62.27-1.23.41-1.81.41-.77,0-1.08-.35-1.08-1.2,0-.49.08-.99.23-1.47.11-.35.21-.63.3-.84.83-.02,1.56-.15,2.18-.37.69-.25,1.28-.56,1.74-.94.47-.38.83-.79,1.07-1.23.25-.45.38-.89.38-1.29,0-.35-.14-.66-.4-.89-.25-.22-.62-.32-1.14-.32-.79,0-1.63.28-2.47.83-.81.53-1.56,1.19-2.23,1.97-.67.78-1.23,1.65-1.65,2.57-.43.94-.66,1.84-.66,2.68s.32,2.2,2.46,2.2c.87,0,1.76-.17,2.63-.5.86-.32,1.7-.75,2.49-1.27.79-.52,1.54-1.1,2.21-1.73.67-.63,1.26-1.24,1.75-1.82.07-.09.11-.19.11-.31,0-.28-.16-.51-.42-.61ZM139.99,310.61c.21-.15.41-.22.65-.25,0,0,0,.02,0,.08,0,.63-.25,1.16-.77,1.63-.5.45-1.06.69-1.71.71.09-.14.18-.29.27-.44.25-.37.5-.71.77-1.02.25-.3.51-.54.77-.72Z"/><path class="cls-2" d="M172.66,319.64c-.11-.03-.32-.05-.55.12-.06.04-.1.09-.13.15-.66,1.18-1.47,2.1-2.42,2.72-.93.61-1.99.92-3.15.92-.7,0-1.57-.18-2.58-.53-1.04-.36-2.19-.86-3.42-1.47-1.24-.62-2.55-1.35-3.91-2.15-1.26-.75-2.55-1.54-3.88-2.39,1.24-.81,2.39-1.59,3.41-2.33,1.1-.8,2.01-1.49,2.69-2.07.3-.27.71-.6,1.24-1,.53-.4,1.03-.77,1.5-1.09.03-.02.06-.05.09-.08.31-.36.29-.8-.05-1.1-.33-.29-.75-.28-1.06.03-.62.58-1.26,1.07-1.9,1.46-1.03.62-2.11.72-2.68.26-.21-.17-.31-.39-.31-.71,0-.38.08-.65.23-.8.09-.09.15-.21.15-.34,0-.37-.27-.64-.65-.64-.09,0-.17.02-.25.07-.48.29-.89.6-1.22.92-.38.37-.6.69-.68,1,0,.04-.01.08-.01.12,0,.83.28,1.42.83,1.78.48.31.96.46,1.42.46.16,0,.38-.02.65-.07.18-.03.36-.06.53-.1-.44.35-.98.76-1.61,1.2-.84.6-1.85,1.26-2.98,1.94-1.14.69-2.35,1.33-3.63,1.92-.25.12-.41.29-.48.5-.04.13-.07.33.05.56.09.18.25.32.44.37.21.06.45.01.71-.14.25-.16.46-.29.64-.4l.65-.38h0c1.38.93,2.7,1.8,3.97,2.61,1.28.81,2.55,1.53,3.78,2.11,1.25.6,2.5,1.07,3.73,1.4,1.25.34,2.51.51,3.75.51.97,0,1.9-.13,2.75-.39.85-.26,1.62-.6,2.27-1.02.66-.42,1.21-.91,1.65-1.45.45-.56.75-1.16.88-1.78.02-.09,0-.19-.03-.28-.11-.26-.29-.36-.42-.4Z"/><path class="cls-2" d="M214.64,298.09c0-.06-.01-.12-.03-.17-.12-.32-.38-.6-.77-.83-.94-.56-1.58-.36-2.23-.04-.36.18-.7.41-1.02.67-.32.27-.61.57-.87.89-.25.32-.46.62-.64.89-.71,1.07-1.43,2.24-2.14,3.46-.7,1.2-1.42,2.49-2.14,3.82-.7,1.31-1.4,2.64-2.09,3.98-.69,1.34-1.36,2.65-2,3.93-.03.06-.06.11-.09.17-.01-.05-.03-.1-.04-.15-.31-.88-.67-1.85-1.08-2.92-.41-1.06-.81-2.14-1.22-3.23-.41-1.09-.79-2.14-1.16-3.17-.36-1-.65-1.92-.88-2.73-.08-.29-.17-.65-.27-1.06-.1-.43-.18-.75-.22-.91-.08-.67-.58-.9-.96-.77-.32.1-.73.19-1.23.27-.87.14-1.77.15-2.68.06-.38-.04-.7-.1-.95-.17-.33-.09-.74.14-.74.62,0,.22.06.43.17.62.15.27.45.45.73.43.3-.03.66-.05,1.07-.06.67-.02,1.31-.1,1.58.09.05.04.08.13.08.27,0,.09-.02.25-.13.52-.24.61-.66,1.44-1.24,2.48-.58,1.04-1.2,2.1-1.84,3.13-1.18,1.91-2.1,3.4-2.76,4.48-.66,1.08-1.16,1.91-1.49,2.46-.21.32-.4.66-.59,1.03-.22.43-.33.81-.33,1.16,0,.17.04.37.13.61.08.22.19.44.32.64l.31.5c.16.26.28.39.43.47.07.03.14.05.22.05h.13c.26,0,.48-.21.48-.48s.03-.55.08-.89c.05-.36.12-.71.2-1.07.08-.36.17-.69.27-1.01.09-.3.19-.57.29-.8.39-.87.81-1.72,1.25-2.55.45-.84.92-1.7,1.43-2.59.51-.89,1.06-1.79,1.65-2.7.6-.93,1.26-1.92,1.95-2.98.05-.07.08-.12.12-.16.02.03.04.07.06.12.31.71.68,1.64,1.13,2.8.45,1.17.92,2.42,1.41,3.76.49,1.33.97,2.68,1.43,4.04.46,1.36.87,2.63,1.2,3.75.02.05.04.1.07.15.09.12.35.48.76.48.29,0,.52-.19.68-.55.31-.61.63-1.29.96-2.03l.94-2.16c1.09-2.35,2.29-4.72,3.57-7.05,1.27-2.31,2.6-4.39,3.92-6.16.47-.61.9-1.12,1.29-1.51.37-.37.74-.67,1.08-.86.34-.2.66-.33.95-.4.3-.07.6-.11.9-.11.4,0,.61-.28.61-.56Z"/><path class="cls-2" d="M228.3,310.86c-.23-.09-.41-.06-.53-.01-.12.05-.28.16-.32.3-.36.51-.83.98-1.38,1.42-.51.4-1.06.59-1.68.59-.74,0-1-.29-1.13-.5-.25-.41-.37-.96-.37-1.64,0-.51.05-.99.14-1.41.08-.4.21-.73.4-1.02.12-.22.1-.41.06-.52-.04-.12-.2-.3-.32-.35-.24-.11-.5-.1-.68.02-.07.03-.16.06-.34.1l-.34.06c-.45.09-.77.37-.94.81-.07.18-.13.34-.18.5-.81.12-1.59.39-2.31.8-.8.46-1.51,1.03-2.12,1.67-.3.29-.61.66-.96,1.12-.33.45-.65.93-.94,1.44-.29.51-.54,1.04-.73,1.59-.2.57-.3,1.13-.3,1.67,0,1.14.73,1.79,2,1.79.41,0,.88-.12,1.48-.38.62-.32,1.22-.73,1.77-1.21.54-.48,1.04-1.02,1.47-1.6.43-.57.81-1.15,1.13-1.74.16-.29.31-.57.44-.83.24.23.5.42.8.57,1.45.73,3.04.44,4.25-.45.71-.52,1.33-1.12,1.83-1.77.21-.22.21-.44.19-.55-.02-.11-.1-.33-.38-.45ZM227.8,311.21l.12.12s0,0,0,0l-.12-.12h0ZM216.01,317.38c-.02-.55.1-1.15.36-1.78.28-.67.61-1.3.96-1.88.27-.44.57-.88.9-1.31.32-.42.65-.8.97-1.12.31-.31.61-.56.92-.75.15-.09.29-.15.42-.19,0,.22.02.44.04.66.03.31.07.59.12.83-.05.25-.19.68-.55,1.41-.34.69-.76,1.37-1.24,2.04-.49.67-1.01,1.26-1.54,1.75-.46.43-.88.65-1.28.69-.04-.1-.07-.21-.07-.36ZM228.13,311.55h0s0,0,0,0ZM228.25,311.65h0s.02-.03.03-.04c0,0-.01.02-.02.04Z"/><path class="cls-2" d="M241.42,309.37c-.57-.38-1.33-.35-2.27.06-.46.2-.93.46-1.39.75-.25.16-.5.33-.73.5.05-.14.08-.25.08-.36,0-.41-.2-.76-.57-.98-.34-.21-.51-.27-.67-.27-.34,0-.53.29-.73.65-.11.23-.31.59-.61,1.08-.31.51-.67,1.1-1.08,1.79l-1.31,2.19c-.46.78-.92,1.55-1.37,2.31-.25.41-.36.72-.36.98,0,.3.22.53.44.73.26.23.45.37.68.37.51,0,.67-.34.65-.34.4-.61.77-1.21,1.11-1.8.33-.58.68-1.14,1.04-1.69.36-.55.74-1.08,1.14-1.58.38-.49.83-.94,1.35-1.37.31-.28.68-.53,1.09-.76.8-.44,1.41-.28,1.5-.23.12.06.21.12.27.17.07.07.13.14.17.19.06.08.22.34.52.34.28,0,.52-.17.61-.42.05-.12.15-.29.31-.53.17-.25.33-.47.49-.65.08-.09.12-.2.12-.32,0-.21-.08-.51-.49-.79Z"/><path class="cls-2" d="M254.14,305.97c.5,0,.96-.22,1.35-.65.38-.42.57-.85.57-1.3,0-.62-.39-1.01-1.03-1.01-.53,0-1,.23-1.36.67-.34.41-.51.86-.51,1.33,0,.59.39.97.98.97Z"/><path class="cls-2" d="M257.65,312.35c-.33-.1-.57.15-.73.3-.29.39-.72.87-1.27,1.43-.55.56-1.15,1.1-1.79,1.6-.64.5-1.29.93-1.94,1.29-.6.33-1.15.49-1.63.49-.19,0-.34-.04-.43-.12-.08-.07-.1-.23-.1-.35,0-.17.04-.49.25-1.07.18-.5.42-1.05.71-1.64.31-.6.64-1.23,1.02-1.88.37-.64.74-1.24,1.03-1.69.11-.1.2-.24.26-.42.06-.17.09-.3.09-.42,0-.29-.22-.6-.69-.6-.14,0-.34.03-.88.26-.45.19-.76.43-.93.71-.23.31-.54.77-.93,1.38-.38.6-.76,1.24-1.15,1.9-.39.66-.73,1.32-1.01,1.94-.31.68-.46,1.22-.46,1.65,0,.4.09.73.28.99.17.23.37.42.61.56.24.14.51.24.8.27.25.03.46.04.65.04.53,0,1.12-.1,1.75-.31.62-.2,1.24-.49,1.84-.87.75-.47,1.58-1.11,2.46-1.88.88-.77,1.68-1.61,2.38-2.47.03-.04.05-.08.07-.12.09-.23.12-.42.08-.59-.04-.17-.19-.34-.35-.39Z"/><path class="cls-2" d="M275.16,298.23c1.18-1.62,2.3-2.96,3.3-3.98,1-1.01,1.95-1.81,2.81-2.37.85-.56,1.65-.93,2.37-1.12,1.56-.41,3.12-.37,4.01.02.47.2.83.44,1.08.71.24.26.4.51.48.77.11.36.13.56.13.64,0,.19.08.36.2.48.12.12.28.19.46.15.15-.02.36-.2.43-.33.06-.12.12-.3.17-.58.05-.25.07-.6.07-1.07,0-.71-.14-1.31-.43-1.78-.28-.46-.65-.83-1.1-1.09-.42-.24-.87-.42-1.33-.52-.45-.1-.9-.16-1.33-.16-1.67,0-3.34.59-4.98,1.74-1.58,1.12-3.17,2.59-4.7,4.35-1.52,1.76-3.03,3.73-4.48,5.86-1.45,2.13-2.85,4.22-4.2,6.27-1.15,1.77-2.3,3.6-3.42,5.43-1.1,1.81-2.27,3.79-3.47,5.9-.12.23-.18.46-.18.67,0,.4.25.72.68.85.28.08.5.12.69.12.52,0,.85-.52,1.05-.91.31-.57.67-1.22,1.09-1.95l1.19-2.07c.95-1.24,1.74-2.09,2.36-2.52.24-.17.44-.29.59-.38-.06.14-.14.31-.25.52-.31.58-.65,1.22-1.03,1.92-.38.7-.73,1.4-1.05,2.1-.34.75-.5,1.36-.5,1.87,0,.6.19,1.08.57,1.43.37.34.86.52,1.46.52.69,0,1.45-.2,2.26-.6.77-.38,1.55-.89,2.32-1.51.76-.61,1.51-1.3,2.23-2.04.73-.75,1.37-1.51,1.92-2.26.06-.08.09-.18.09-.28,0-.44-.29-.64-.56-.64-.13,0-.32.04-.55.27-1.48,1.91-2.8,3.28-3.94,4.07-1.36.94-2.09,1.14-2.47,1.14-.27,0-.46-.06-.59-.19-.13-.12-.19-.34-.19-.64,0-.22.06-.63.34-1.33.25-.62.55-1.25.88-1.88.35-.64.7-1.25,1.06-1.81.36-.57.65-1.01.86-1.32.33-.42.48-.75.48-1.03,0-.38-.26-.77-.86-.77-.42,0-.89.14-1.44.42-.49.25-1,.55-1.52.88-.21.14-.41.27-.61.41,1.29-2.41,2.51-4.56,3.62-6.41,1.41-2.34,2.73-4.35,3.92-5.98Z"/><path class="cls-2" d="M295.59,312.23c-.11.02-.28.08-.38.25-.65.79-1.36,1.56-2.1,2.3-.74.73-1.45,1.37-2.13,1.91-.67.53-1.31.96-1.9,1.26-.55.28-1.01.42-1.38.42-.31,0-.4-.06-.4-.06-.06-.08-.09-.18-.09-.32,0-.38.15-1.16.86-2.68.58-1.24,1.48-2.91,2.68-4.97.13,0,.28.02.45.03.37.03.56.07.65.1.38.12.75-.18.75-.58,0-.14-.05-.47-.6-.68-.12-.02-.3-.05-.52-.07.1-.15.2-.28.3-.38.11-.11.12-.28.1-.44-.02-.15-.16-.31-.3-.38-.11-.05-.23-.06-.34-.03l-1.27.36c-.15.08-.31.19-.46.33-.11.11-.22.25-.33.44-1.16.05-2.29.39-3.37,1.02-1.13.66-2.15,1.46-3.03,2.37s-1.6,1.88-2.12,2.87c-.55,1.04-.82,1.88-.82,2.6,0,1.31,1.32,1.77,2.95.85.53-.3,1.06-.68,1.59-1.11.22-.19.44-.38.66-.59-.09.36-.14.67-.14.94,0,.52.15.97.45,1.33.32.39.84.58,1.55.58s1.5-.21,2.34-.62c.8-.39,1.61-.92,2.43-1.57.79-.63,1.59-1.35,2.38-2.14.79-.79,1.51-1.58,2.15-2.34.07-.09.11-.2.11-.31,0-.24-.1-.45-.28-.57-.1-.07-.31-.12-.43-.1ZM283.01,315.93c.39-.84.92-1.7,1.57-2.55.64-.85,1.39-1.59,2.22-2.22.53-.4,1.07-.67,1.63-.79-.22.37-.45.77-.69,1.2-.41.71-.84,1.4-1.29,2.05-.38.55-.79,1.06-1.24,1.54-.44.47-.89.89-1.32,1.25-.44.36-.83.64-1.15.85-.11.07-.2.12-.27.16.05-.28.2-.74.54-1.47Z"/><path class="cls-2" d="M316.87,314.11c-.15-.03-.52-.07-.81.35-.33.38-.74.82-1.21,1.32-.47.5-.98.97-1.52,1.41-.54.45-1.08.83-1.62,1.14-.49.28-.94.43-1.36.43-.25,0-.32-.04-.32-.34,0-.22.07-.65.41-1.48.29-.7.63-1.45,1.01-2.21.39-.77.77-1.5,1.15-2.17.39-.7.65-1.2.79-1.49.07-.13.12-.25.15-.35.05-.13.07-.27.07-.4,0-.65-.43-1.05-1.11-1.05-.07,0-.14.01-.2.04-.45.2-.93.48-1.44.82-.5.33-1,.7-1.51,1.08-.34.26-.66.54-.97.81.08-.27.12-.49.12-.68,0-.81-.49-1.09-.94-1.09-.6,0-1.31.35-2.16,1.08-.07.06-.15.13-.23.2.19-.37.34-.7.44-1,.02-.05.03-.11.03-.16,0-.24-.09-.48-.26-.72-.26-.35-.56-.42-.76-.42-.24,0-.59.11-.87.6-.73,1.2-1.46,2.42-2.19,3.65-.73,1.22-1.47,2.42-2.19,3.54-.19.22-.28.5-.28.84,0,.22.02.45.07.68.09.41.42.66.87.66.39,0,.7-.35,1.03-.88.28-.43.61-.93,1-1.5.3-.42.68-.9,1.13-1.44.46-.54.92-1.05,1.39-1.53.46-.47.89-.88,1.29-1.21.03-.02.05-.05.08-.07-.11.3-.26.66-.45,1.08-.21.46-.45.95-.74,1.48-.28.52-.6,1.02-.95,1.49-.25.33-.42.61-.52.86-.11.27-.16.46-.16.61,0,.25.09.49.28.71.26.31.55.38.75.38.45,0,.77-.42.87-.56.2-.27.4-.6.59-.97l.57-1.11c.18-.36.37-.66.55-.92.19-.26.47-.59.83-.98.37-.41.78-.82,1.22-1.25.44-.43.89-.82,1.34-1.18.18-.14.35-.27.52-.39-.06.16-.15.37-.28.62-.32.66-.67,1.36-1.07,2.09-.4.74-.76,1.46-1.08,2.15-.36.76-.53,1.3-.53,1.68,0,.6.16,1.06.48,1.37.32.31.82.46,1.51.46s1.41-.18,2.13-.54c.69-.34,1.36-.77,2-1.28.63-.5,1.23-1.03,1.79-1.59.55-.55,1.03-1.05,1.43-1.49.01-.01.03-.03.04-.05.15-.22.31-.51.2-.8-.06-.15-.24-.31-.4-.34Z"/><path class="cls-2" d="M337.67,312.33c-.1-.08-.3-.13-.43-.1-.11.02-.28.08-.39.25-.65.79-1.36,1.57-2.1,2.3-.73.73-1.45,1.37-2.13,1.91-.67.53-1.31.95-1.9,1.26-.55.28-1.01.42-1.39.42-.31,0-.4-.06-.4-.06-.06-.08-.09-.18-.09-.32,0-.38.15-1.16.86-2.68.58-1.23,1.48-2.9,2.68-4.97.13,0,.28.02.45.03.37.03.56.07.65.1.39.12.75-.18.75-.58,0-.13-.05-.47-.6-.68-.12-.02-.3-.05-.52-.07.1-.16.2-.28.3-.38.11-.11.12-.29.1-.44-.02-.15-.16-.31-.31-.38-.1-.05-.22-.06-.34-.03l-1.26.36c-.16.08-.31.18-.46.34-.11.11-.22.25-.33.44-1.16.05-2.29.39-3.37,1.02-1.13.66-2.15,1.46-3.03,2.37s-1.6,1.88-2.12,2.87c-.55,1.03-.82,1.88-.82,2.6,0,1.31,1.32,1.77,2.95.85.53-.3,1.06-.68,1.59-1.11.22-.19.44-.38.66-.59-.09.36-.14.67-.14.94,0,.52.15.97.45,1.33.32.39.84.58,1.55.58s1.5-.21,2.34-.62c.8-.4,1.62-.92,2.42-1.57.79-.63,1.59-1.35,2.38-2.14.79-.79,1.51-1.58,2.16-2.34.07-.09.11-.2.11-.31,0-.24-.11-.45-.28-.57ZM324.65,315.93c.39-.84.92-1.7,1.57-2.55.64-.85,1.39-1.59,2.22-2.22.52-.4,1.07-.66,1.63-.79-.21.37-.44.77-.69,1.19-.41.71-.84,1.4-1.29,2.06-.37.54-.79,1.06-1.24,1.54-.44.47-.89.89-1.32,1.25-.44.36-.83.64-1.15.84-.11.07-.2.12-.27.16.05-.27.19-.73.54-1.47Z"/></g></svg>